<svg width="21" height="21" viewBox="0 0 21 21" fill="none" xmlns="http://www.w3.org/2000/svg">
<g clip-path="url(#clip0)">
<path d="M16.6828 8.47656H9.18278C8.26231 8.47656 7.51611 9.22275 7.51611 10.1432V17.6432C7.51611 18.5637 8.26231 19.3099 9.18278 19.3099H16.6828C17.6033 19.3099 18.3494 18.5637 18.3494 17.6432V10.1432C18.3494 9.22275 17.6033 8.47656 16.6828 8.47656Z" stroke="#3485FF" stroke-width="2" stroke-linecap="round" stroke-linejoin="round"/>
<path d="M4.18262 13.4766H3.34928C2.90726 13.4766 2.48333 13.301 2.17077 12.9884C1.85821 12.6758 1.68262 12.2519 1.68262 11.8099V4.3099C1.68262 3.86787 1.85821 3.44395 2.17077 3.13138C2.48333 2.81882 2.90726 2.64323 3.34928 2.64323H10.8493C11.2913 2.64323 11.7152 2.81882 12.0278 3.13138C12.3404 3.44395 12.516 3.86787 12.516 4.3099V5.14323" stroke="#3485FF" stroke-width="2" stroke-linecap="round" stroke-linejoin="round"/>
</g>
<defs>
<clipPath id="clip0">
<rect width="20" height="20" fill="white" transform="translate(0.0161133 0.976562)"/>
</clipPath>
</defs>
</svg>
