<svg width="14" height="19" viewBox="0 0 14 19" fill="none" xmlns="http://www.w3.org/2000/svg">
<path d="M12.0002 6.66671H11.1668V5.00004C11.1668 2.70004 9.30016 0.833374 7.00016 0.833374C4.70016 0.833374 2.8335 2.70004 2.8335 5.00004V6.66671H2.00016C1.0835 6.66671 0.333496 7.41671 0.333496 8.33337V16.6667C0.333496 17.5834 1.0835 18.3334 2.00016 18.3334H12.0002C12.9168 18.3334 13.6668 17.5834 13.6668 16.6667V8.33337C13.6668 7.41671 12.9168 6.66671 12.0002 6.66671ZM7.00016 14.1667C6.0835 14.1667 5.3335 13.4167 5.3335 12.5C5.3335 11.5834 6.0835 10.8334 7.00016 10.8334C7.91683 10.8334 8.66683 11.5834 8.66683 12.5C8.66683 13.4167 7.91683 14.1667 7.00016 14.1667ZM9.5835 6.66671H4.41683V5.00004C4.41683 3.57504 5.57516 2.41671 7.00016 2.41671C8.42516 2.41671 9.5835 3.57504 9.5835 5.00004V6.66671Z" fill="#A5B0C1"/>
</svg>
